<svg width="20" height="20" viewBox="0 0 20 20" fill="none"
  xmlns="http://www.w3.org/2000/svg">
  <path d="M8.3335 10.8332C9.05763 11.8013 10.1665 12.4071 11.3724 12.4935C12.5782 12.5799 13.7621 12.1382 14.6168 11.2832L17.1168 8.78322C18.6959 7.14831 18.6733 4.54954 17.0661 2.94231C15.4588 1.33509 12.8601 1.31251 11.2252 2.89156L9.79183 4.31656" stroke="white" stroke-opacity="0.36" stroke-width="1.5" stroke-linecap="round" stroke-linejoin="round"/>
  <path d="M11.6668 9.16679C10.9427 8.19871 9.83381 7.59287 8.62796 7.50651C7.42211 7.42015 6.2382 7.86178 5.3835 8.71678L2.8835 11.2168C1.30445 12.8517 1.32703 15.4505 2.93426 17.0577C4.54148 18.6649 7.14025 18.6875 8.77517 17.1085L10.2002 15.6835" stroke="white" stroke-opacity="0.36" stroke-width="1.5" stroke-linecap="round" stroke-linejoin="round"/>
</svg>
