<svg width="122" height="40" viewBox="0 0 122 40" fill="none"
  xmlns="http://www.w3.org/2000/svg">
  <mask id="mask0_85_3141" style="mask-type:luminance" maskUnits="userSpaceOnUse" x="0" y="0" width="122" height="40">
    <path d="M122 0H0V40H122V0Z" fill="white"/>
  </mask>
  <g mask="url(#mask0_85_3141)">
    <path d="M41.884 19.3929C41.8516 18.5048 42 17.6193 42.3204 16.7896C42.6408 15.9599 43.1266 15.2032 43.7485 14.5649C44.3704 13.9266 45.1156 13.4198 45.9394 13.0751C46.7633 12.7303 47.6487 12.5547 48.5425 12.5587C51.9103 12.5587 53.9036 14.5235 54.505 16.8301L52.3915 17.5391C52.2055 16.6792 51.7139 15.9147 51.007 15.3859C50.3 14.8571 49.425 14.5995 48.5425 14.6602C46.3602 14.6602 44.178 16.2406 44.178 19.4356C44.178 22.6306 46.3087 24.1512 48.5682 24.1512C49.4556 24.1768 50.326 23.9053 51.0396 23.3801C51.7532 22.8549 52.2686 22.1066 52.5032 21.2552L54.5565 21.9216C54.205 23.2214 53.4167 24.3624 52.3226 25.155C51.2285 25.9476 49.8945 26.344 48.5425 26.2783C47.6406 26.2951 46.745 26.1265 45.9118 25.7829C45.0786 25.4393 44.3258 24.9283 43.7007 24.2818C43.0755 23.6353 42.5914 22.8673 42.2788 22.026C41.9662 21.1847 41.8318 20.2883 41.884 19.3929Z" fill="white"/>
    <path d="M58.6289 25.9622H56.4639V12.5244H58.6289V17.7953C58.9443 17.4245 59.34 17.1297 59.7864 16.9329C60.2329 16.7361 60.7184 16.6425 61.2064 16.6591C63.4488 16.6591 64.5313 18.2566 64.5313 20.2471V25.9622H62.4264V20.6144C62.4659 20.3543 62.4459 20.0886 62.3679 19.8372C62.2899 19.5858 62.156 19.3551 61.9761 19.1622C61.7961 18.9694 61.5748 18.8193 61.3285 18.7231C61.0822 18.627 60.8173 18.5872 60.5534 18.6069C60.2916 18.6071 60.0327 18.6614 59.793 18.7663C59.5534 18.8713 59.3383 19.0246 59.1614 19.2166C58.9845 19.4085 58.8497 19.6349 58.7654 19.8815C58.6811 20.128 58.6493 20.3892 58.6719 20.6486L58.6289 25.9622Z" fill="white"/>
    <path d="M69.3684 20.7849L71.6967 20.4261C72.2208 20.3577 72.3668 20.0929 72.3668 19.7768C72.3668 19.0165 71.8513 18.4014 70.6485 18.4014C70.4166 18.3816 70.183 18.4089 69.962 18.4815C69.7409 18.5542 69.537 18.6707 69.3627 18.8241C69.1883 18.9775 69.0472 19.1645 68.9477 19.3738C68.8483 19.5831 68.7926 19.8103 68.7842 20.0416L66.8081 19.5974C66.9713 18.0341 68.3975 16.6416 70.6313 16.6416C73.4322 16.6416 74.4975 18.222 74.4975 20.0587V24.5437C74.4926 25.0301 74.5299 25.516 74.6092 25.9959H72.5902C72.5209 25.6156 72.4921 25.229 72.5043 24.8427C72.2027 25.3023 71.7857 25.6757 71.2945 25.9259C70.8032 26.1761 70.2548 26.2945 69.7034 26.2693C69.3191 26.3007 68.9322 26.2543 68.5664 26.1329C68.2006 26.0115 67.8633 25.8175 67.575 25.5628C67.2867 25.308 67.0533 24.9978 66.889 24.6509C66.7247 24.3039 66.6329 23.9274 66.6191 23.5442C66.6191 21.8954 67.8133 21.007 69.3684 20.7849ZM72.3668 22.2371V21.8271L69.9956 22.1773C69.6733 22.1883 69.3677 22.3222 69.1422 22.5512C68.9166 22.7803 68.7884 23.0869 68.7842 23.4075C68.7869 23.573 68.8241 23.7361 68.8935 23.8865C68.9629 24.037 69.063 24.1714 69.1873 24.2814C69.3117 24.3914 69.4577 24.4746 69.616 24.5256C69.7744 24.5766 69.9416 24.5944 70.1073 24.5778C70.4201 24.6096 70.7362 24.57 71.0314 24.4621C71.3266 24.3543 71.5933 24.1809 71.8111 23.9553C72.0289 23.7297 72.1921 23.4577 72.2884 23.16C72.3847 22.8623 72.4115 22.5467 72.3668 22.2371Z" fill="white"/>
    <path d="M78.1747 12.3363C78.3623 12.334 78.5485 12.3688 78.7225 12.4387C78.8965 12.5085 79.0548 12.6119 79.1882 12.7431C79.3217 12.8742 79.4277 13.0303 79.5 13.2025C79.5723 13.3746 79.6095 13.5593 79.6095 13.7459C79.6095 14.1174 79.4611 14.4738 79.1968 14.7365C78.9326 14.9993 78.5742 15.1469 78.2005 15.1469C77.8268 15.1469 77.4684 14.9993 77.2042 14.7365C76.9399 14.4738 76.7915 14.1174 76.7915 13.7459C76.7914 13.3779 76.936 13.0244 77.1945 12.761C77.4529 12.4977 77.8047 12.3452 78.1747 12.3363ZM77.118 26.0047V16.9238H79.2573V25.962L77.118 26.0047Z" fill="white"/>
    <path d="M84.2232 25.962H82.0581V16.9238H84.1716V18.1283C84.4459 17.6659 84.8404 17.2854 85.3135 17.0269C85.7867 16.7683 86.3212 16.6412 86.8608 16.6589C89.0774 16.6589 90.1427 18.2564 90.1427 20.2469V25.962H87.9777V20.6142C87.9777 19.5037 87.4708 18.6067 86.1133 18.6067C85.8431 18.6083 85.5763 18.6668 85.3304 18.7782C85.0846 18.8896 84.8652 19.0515 84.6867 19.2531C84.5082 19.4548 84.3746 19.6918 84.2947 19.9485C84.2148 20.2051 84.1905 20.4757 84.2232 20.7424V25.962Z" fill="white"/>
    <path d="M92.7803 25.9622V12.5244H94.9453V25.9622H92.7803Z" fill="white"/>
    <path d="M98.8115 12.3359C99.1875 12.3359 99.5481 12.4844 99.8139 12.7488C100.08 13.0131 100.229 13.3716 100.229 13.7455C100.227 14.0218 100.143 14.2915 99.9881 14.5206C99.8326 14.7497 99.6125 14.9279 99.3554 15.0329C99.0982 15.1379 98.8157 15.1649 98.5431 15.1106C98.2706 15.0562 98.0203 14.923 97.8238 14.7275C97.6273 14.5321 97.4933 14.2833 97.4386 14.0123C97.384 13.7413 97.4112 13.4604 97.5167 13.2047C97.6223 12.9491 97.8016 12.7302 98.032 12.5756C98.2624 12.421 98.5336 12.3376 98.8115 12.3359ZM97.7462 26.0043V16.9234H99.894V25.9616L97.7462 26.0043Z" fill="white"/>
    <path d="M104.86 25.9616H102.695V16.9234H104.8V18.1279C105.075 17.6667 105.47 17.2873 105.943 17.0289C106.416 16.7705 106.95 16.6427 107.489 16.6585C109.714 16.6585 110.779 18.256 110.779 20.2465V25.9616H108.614V20.6138C108.654 20.3537 108.634 20.088 108.556 19.8366C108.478 19.5852 108.344 19.3545 108.164 19.1616C107.984 18.9688 107.763 18.8187 107.516 18.7225C107.27 18.6264 107.005 18.5866 106.741 18.6063C106.472 18.6078 106.205 18.6662 105.96 18.7777C105.714 18.8892 105.495 19.0512 105.317 19.2531C105.139 19.4549 105.007 19.692 104.928 19.9487C104.849 20.2054 104.826 20.4757 104.86 20.742V25.9616Z" fill="white"/>
    <path d="M118.185 20.7426L122 25.9622H119.345L116.673 22.2375L115.556 23.4079V25.9707H113.408V12.5244H115.556V20.5802L119.045 16.924H121.923L118.185 20.7426Z" fill="white"/>
    <path d="M16.2294 8.89348L25.5942 14.2412V24.9794L16.2552 30.3614L6.89042 25.0222V14.2839L16.2294 8.89348ZM16.2294 1L12.7928 2.98191L3.43662 8.37238L0 10.3543V14.301V25.0307V28.9774L3.43662 30.9423L12.8014 36.29L16.238 38.2548L19.6747 36.2729L29.0137 30.8825L32.4503 28.9091V24.9624V14.2241V10.2774L29.0137 8.31258L19.6489 2.96483L16.2123 1H16.2294Z" fill="white"/>
  </g>
</svg>
