<svg width="24" height="21" viewBox="0 0 24 21" fill="none"
  xmlns="http://www.w3.org/2000/svg">
  <g clip-path="url(#clip0_219_473)">
    <path d="M18.0001 6.92043C17.5801 6.68043 17.0401 6.68043 16.5601 6.92043L13.2001 8.90043L10.9201 10.1604L7.6201 12.1404C7.2001 12.3804 6.6601 12.3804 6.1801 12.1404L3.6001 10.5804C3.1801 10.3404 2.8801 9.86043 2.8801 9.32043V6.32043C2.8801 5.84043 3.1201 5.36043 3.6001 5.06043L6.1801 3.56043C6.6001 3.32043 7.1401 3.32043 7.6201 3.56043L10.2001 5.12043C10.6201 5.36043 10.9201 5.84043 10.9201 6.38043V8.36043L13.2001 7.04043V5.00043C13.2001 4.52043 12.9601 4.04043 12.4801 3.74043L7.6801 0.920433C7.2601 0.680433 6.7201 0.680433 6.2401 0.920433L1.3201 3.80043C0.840098 4.04043 0.600098 4.52043 0.600098 5.00043V10.6404C0.600098 11.1204 0.840098 11.6004 1.3201 11.9004L6.1801 14.7204C6.6001 14.9604 7.1401 14.9604 7.6201 14.7204L10.9201 12.8004L13.2001 11.4804L16.5001 9.56043C16.9201 9.32043 17.4601 9.32043 17.9401 9.56043L20.5201 11.0604C20.9401 11.3004 21.2401 11.7804 21.2401 12.3204V15.3204C21.2401 15.8004 21.0001 16.2804 20.5201 16.5804L18.0001 18.0804C17.5801 18.3204 17.0401 18.3204 16.5601 18.0804L13.9801 16.5804C13.5601 16.3404 13.2601 15.8604 13.2601 15.3204V13.4004L10.9801 14.7204V16.7004C10.9801 17.1804 11.2201 17.6604 11.7001 17.9604L16.5601 20.7804C16.9801 21.0204 17.5201 21.0204 18.0001 20.7804L22.8601 17.9604C23.2801 17.7204 23.5801 17.2404 23.5801 16.7004V11.0004C23.5801 10.5204 23.3401 10.0404 22.8601 9.74043L18.0001 6.92043Z" fill="#8247E5"/>
  </g>
  <defs>
    <clipPath id="clip0_219_473">
      <rect width="23.04" height="20.1" fill="white" transform="translate(0.600098 0.800003)"/>
    </clipPath>
  </defs>
</svg>
