<svg width="24" height="24" viewBox="0 0 24 24" fill="none"
  xmlns="http://www.w3.org/2000/svg">
  <g clip-path="url(#clip0_144_2891)">
    <path d="M12 24C18.6274 24 24 18.6274 24 12C24 5.37258 18.6274 0 12 0C5.37258 0 0 5.37258 0 12C0 18.6274 5.37258 24 12 24Z" fill="url(#paint0_linear_144_2891)"/>
    <path d="M20.5908 12.1466H18.4753C18.4753 7.83548 14.9683 4.34082 10.6418 4.34082C6.36892 4.34082 2.895 7.74993 2.80998 11.9872C2.72202 16.3672 6.84587 20.1706 11.242 20.1706H11.795C15.6707 20.1706 20.8654 17.1474 21.677 13.4638C21.8269 12.7848 21.2886 12.1466 20.5908 12.1466ZM7.49815 12.3387C7.49815 12.9152 7.02494 13.3867 6.44638 13.3867C5.86781 13.3867 5.39463 12.9149 5.39463 12.3387V10.6432C5.39463 10.0667 5.86781 9.59518 6.44638 9.59518C7.02494 9.59518 7.49815 10.0667 7.49815 10.6432V12.3387ZM11.1502 12.3387C11.1502 12.9152 10.6771 13.3867 10.0986 13.3867C9.51994 13.3867 9.04679 12.9149 9.04679 12.3387V10.6432C9.04679 10.0667 9.52015 9.59518 10.0986 9.59518C10.6771 9.59518 11.1502 10.0667 11.1502 10.6432V12.3387Z" fill="url(#paint1_linear_144_2891)"/>
  </g>
  <defs>
    <linearGradient id="paint0_linear_144_2891" x1="12" y1="0" x2="12" y2="24" gradientUnits="userSpaceOnUse">
      <stop stop-color="#534BB1"/>
      <stop offset="1" stop-color="#551BF9"/>
    </linearGradient>
    <linearGradient id="paint1_linear_144_2891" x1="12.2554" y1="4.34082" x2="12.2554" y2="20.1706" gradientUnits="userSpaceOnUse">
      <stop stop-color="white"/>
      <stop offset="1" stop-color="white" stop-opacity="0.82"/>
    </linearGradient>
    <clipPath id="clip0_144_2891">
      <rect width="24" height="24" fill="white"/>
    </clipPath>
  </defs>
</svg>
