<svg width="24" height="24" viewBox="0 0 24 24" fill="none"
  xmlns="http://www.w3.org/2000/svg">
  <g clip-path="url(#clip0_144_2894)">
    <path d="M12.082 22.997C12.334 22.997 12.5383 23.1991 12.5383 23.4483C12.5383 23.6976 12.334 23.8996 12.082 23.8996C11.83 23.8996 11.6256 23.6976 11.6256 23.4483C11.6256 23.1991 11.83 22.997 12.082 22.997ZM11.5862 1.43748C11.8092 1.45589 11.9893 1.62487 12.0195 1.84395L12.5623 5.7875C12.7446 7.09037 14.316 7.6549 15.2859 6.76954L20.7239 1.81998C20.8551 1.70059 21.0594 1.70886 21.1802 1.83846C21.2911 1.95737 21.2944 2.13941 21.188 2.26219L16.446 7.73218C15.573 8.73739 16.2171 10.307 17.5479 10.4191L21.732 10.8225C21.9403 10.8425 22.0928 11.0257 22.0724 11.2316C22.0557 11.4014 21.9249 11.5386 21.7543 11.5652L17.3578 12.2517C16.0813 12.4257 15.5032 13.9373 16.3335 14.9193L17.8791 16.7414C18.0036 16.8882 17.9841 17.107 17.8355 17.23C17.7096 17.3342 17.5274 17.3383 17.3969 17.2397L15.4916 15.8008C14.4634 15.0276 12.9813 15.6848 12.8726 16.9644L12.4528 21.9553C12.4354 22.1615 12.2522 22.3147 12.0436 22.2975C11.8665 22.283 11.7234 22.1489 11.6994 21.9749L11.0336 17.154C10.8552 15.851 9.28378 15.2866 8.3099 16.1719L2.52497 21.4394C2.40522 21.5484 2.21868 21.5409 2.10833 21.4226C2.00708 21.3141 2.004 21.1479 2.10116 21.0358L7.14989 15.2093C8.02286 14.2041 7.38264 12.6344 6.05184 12.5223L1.86685 12.1189C1.65847 12.0988 1.50603 11.9156 1.52636 11.7097C1.54313 11.54 1.67391 11.4028 1.84446 11.3761L6.23808 10.6898C7.51459 10.5158 8.09654 9.00418 7.26629 8.02214L6.21413 6.78178C6.05971 6.59976 6.0839 6.32851 6.26818 6.17597C6.42432 6.04666 6.6504 6.04171 6.81221 6.16402L8.10427 7.14067C9.13248 7.9139 10.6145 7.25669 10.7232 5.97701L11.0708 1.86822C11.0927 1.60863 11.3235 1.41578 11.5862 1.43748ZM0.456322 11.2485C0.708341 11.2485 0.912643 11.4506 0.912643 11.6999C0.912643 11.9491 0.708341 12.1512 0.456322 12.1512C0.204302 12.1512 0 11.9491 0 11.6999C0 11.4506 0.204302 11.2485 0.456322 11.2485ZM23.3426 10.7903C23.5946 10.7903 23.7989 10.9923 23.7989 11.2416C23.7989 11.4909 23.5946 11.6929 23.3426 11.6929C23.0906 11.6929 22.8863 11.4909 22.8863 11.2416C22.8863 10.9923 23.0906 10.7903 23.3426 10.7903ZM11.5204 0C11.7724 0 11.9767 0.202067 11.9767 0.45133C11.9767 0.700594 11.7724 0.902659 11.5204 0.902659C11.2683 0.902659 11.064 0.700594 11.064 0.45133C11.064 0.202067 11.2683 0 11.5204 0Z" fill="url(#paint0_linear_144_2894)"/>
    <path d="M11.7939 15.7337C14.1745 15.7337 16.1044 13.8249 16.1044 11.4703C16.1044 9.1158 14.1745 7.20703 11.7939 7.20703C9.41329 7.20703 7.4834 9.1158 7.4834 11.4703C7.4834 13.8249 9.41329 15.7337 11.7939 15.7337Z" fill="url(#paint1_radial_144_2894)"/>
  </g>
  <defs>
    <linearGradient id="paint0_linear_144_2894" x1="3.10961" y1="3.8016" x2="16.7571" y2="16.1565" gradientUnits="userSpaceOnUse">
      <stop stop-color="#FFC10B"/>
      <stop offset="1" stop-color="#FB3F2E"/>
    </linearGradient>
    <radialGradient id="paint1_radial_144_2894" cx="0" cy="0" r="1" gradientUnits="userSpaceOnUse" gradientTransform="translate(10.8095 9.89642) rotate(67.5196) scale(6.26688 6.32779)">
      <stop stop-color="#FFC10B"/>
      <stop offset="1" stop-color="#FB3F2E"/>
    </radialGradient>
    <clipPath id="clip0_144_2894">
      <rect width="24" height="24" fill="white"/>
    </clipPath>
  </defs>
</svg>
